HIERARCHY
ROOT Hips
{
	OFFSET 0.000000 0.000000 0.000000
	CHANNELS 6 Xposition Yposition Zposition Xrotation Yrotation Zrotation
	JOINT LeftUpLeg_virtual
	{
		OFFSET 0.000000 0.000000 0.000000
		CHANNELS 3 Xrotation Yrotation Zrotation
		JOINT LeftUpLeg
		{
			OFFSET 11.394100 -6.187798 -0.413800
			CHANNELS 3 Xrotation Yrotation Zrotation
			JOINT LeftLeg
			{
				OFFSET 0.430247 -32.302673 3.732800
				CHANNELS 3 Xrotation Yrotation Zrotation
				JOINT LeftFoot
				{
					OFFSET -0.430247 -48.264931 -6.423300
					CHANNELS 3 Xrotation Yrotation Zrotation
					JOINT LeftToeBase
					{
						OFFSET 4.230900 -16.068199 23.438400
						CHANNELS 3 Xrotation Yrotation Zrotation
						JOINT LeftToe_End
						{
							OFFSET 4.510700 0.695400 19.974600
							CHANNELS 3 Xrotation Yrotation Zrotation
							End Site
							{
								OFFSET 0 0 0
							}
						}
					}
				}
			}
		}
	}
	JOINT RightUpLeg_virtual
	{
		OFFSET 0.000000 0.000000 0.000000
		CHANNELS 3 Xrotation Yrotation Zrotation
		JOINT RightUpLeg
		{
			OFFSET -11.333700 -6.187798 -0.413800
			CHANNELS 3 Xrotation Yrotation Zrotation
			JOINT RightLeg
			{
				OFFSET -0.430392 -32.302628 3.733000
				CHANNELS 3 Xrotation Yrotation Zrotation
				JOINT RightFoot
				{
					OFFSET 0.430392 -48.264973 -6.423500
					CHANNELS 3 Xrotation Yrotation Zrotation
					JOINT RightToeBase
					{
						OFFSET -4.230900 -16.068199 23.438400
						CHANNELS 3 Xrotation Yrotation Zrotation
						JOINT RightToe_End
						{
							OFFSET -4.510700 0.695400 19.974600
							CHANNELS 3 Xrotation Yrotation Zrotation
							End Site
							{
								OFFSET 0 0 0
							}
						}
					}
				}
			}
		}
	}
	JOINT Spine_virtual
	{
		OFFSET 0.000000 0.000000 0.000000
		CHANNELS 3 Xrotation Yrotation Zrotation
		JOINT Spine
		{
			OFFSET -0.002400 12.777504 0.315300
			CHANNELS 3 Xrotation Yrotation Zrotation
			JOINT Spine1
			{
				OFFSET -0.002067 5.816869 0.032633
				CHANNELS 3 Xrotation Yrotation Zrotation
				JOINT Spine1_split
				{
					OFFSET -0.002067 5.816869 0.032633
					CHANNELS 3 Xrotation Yrotation Zrotation
					JOINT Spine2
					{
						OFFSET -0.002067 5.816869 0.032633
						CHANNELS 3 Xrotation Yrotation Zrotation
						JOINT Neck_virtual
						{
							OFFSET 0.000000 0.000000 0.000000
							CHANNELS 3 Xrotation Yrotation Zrotation
							JOINT Neck
							{
								OFFSET -0.003700 21.199493 -0.826900
								CHANNELS 3 Xrotation Yrotation Zrotation
								JOINT Head
								{
									OFFSET 0.000000 20.442200 4.834800
									CHANNELS 3 Xrotation Yrotation Zrotation
									JOINT HeadTop_End
									{
										OFFSET 0.000000 34.668396 4.968400
										CHANNELS 3 Xrotation Yrotation Zrotation
										End Site
										{
											OFFSET 0 0 0
										}
									}
								}
							}
						}
						JOINT LeftShoulder_virtual
						{
							OFFSET 0.000000 0.000000 0.000000
							CHANNELS 3 Xrotation Yrotation Zrotation
							JOINT LeftShoulder
							{
								OFFSET 3.288150 8.794197 -1.372250
								CHANNELS 3 Xrotation Yrotation Zrotation
								JOINT LeftShoulder_split
								{
									OFFSET 3.288150 8.794197 -1.372250
									CHANNELS 3 Xrotation Yrotation Zrotation
									JOINT LeftArm
									{
										OFFSET 11.953299 -2.279007 -0.146200
										CHANNELS 3 Xrotation Yrotation Zrotation
										JOINT LeftForeArm
										{
											OFFSET 18.448900 0.000000 0.000000
											CHANNELS 3 Xrotation Yrotation Zrotation
											JOINT LeftHand
											{
												OFFSET 29.527798 0.000000 0.000000
												CHANNELS 3 Xrotation Yrotation Zrotation
												End Site
												{
													OFFSET 0 0 0
												}
											}
										}
									}
								}
							}
						}
						JOINT RightShoulder_virtual
						{
							OFFSET 0.000000 0.000000 0.000000
							CHANNELS 3 Xrotation Yrotation Zrotation
							JOINT RightShoulder
							{
								OFFSET -3.249400 8.794197 -1.372250
								CHANNELS 3 Xrotation Yrotation Zrotation
								JOINT RightShoulder_split
								{
									OFFSET -3.249400 8.794197 -1.372250
									CHANNELS 3 Xrotation Yrotation Zrotation
									JOINT RightArm
									{
										OFFSET -11.953299 -2.279007 -0.146200
										CHANNELS 3 Xrotation Yrotation Zrotation
										JOINT RightForeArm
										{
											OFFSET -18.448900 0.000000 0.000000
											CHANNELS 3 Xrotation Yrotation Zrotation
											JOINT RightHand
											{
												OFFSET -29.527802 0.000000 0.000000
												CHANNELS 3 Xrotation Yrotation Zrotation
												End Site
												{
													OFFSET 0 0 0
												}
											}
										}
									}
								}
							}
						}
					}
				}
			}
		}
	}
}
MOTION
Frames: 11
Frame Time: 0.03333333
3.652598 85.456215 -7.757854 0.000000 0.000000 0.000000 6.229514 -46.697481 8.278109 -40.518175 4.755985 20.265945 45.584160 -12.070553 4.611967 -2.910438 -8.002705 -9.824629 -2.750231 -1.670611 -3.090252 0.000000 0.000000 0.000000 5.052934 -48.811571 8.636875 -20.401915 -7.130055 -24.289551 48.599542 6.162050 -4.470473 -17.725181 -25.192900 52.741198 4.395871 14.966437 -39.423514 0.000000 0.000000 0.000000 4.492447 -40.324511 5.118140 4.672278 11.037562 4.922606 1.799054 1.613334 -2.879877 0.418313 -1.358847 -0.043899 0.000000 0.000000 0.000000 2.456878 3.074235 -1.093014 8.390612 8.555965 3.569127 -38.886668 -77.892611 -51.348324 0.000000 0.000000 0.000000 -0.662358 0.470187 -3.966102 4.157505 -12.350170 9.504682 1.823781 5.795148 -7.283649 -49.413021 26.470354 -43.345166 178.723907 -47.854617 176.587861 0.000000 0.000000 0.000000 1.486670 1.696191 0.138355 5.235437 7.176651 -8.681213 -18.898143 -1.774265 13.131353 -33.561630 36.873254 75.668333 -125.384091 58.217486 124.529607 0.000000 0.000000 0.000000 
3.630634 85.831299 -7.620907 0.000000 0.000000 0.000000 6.033252 -47.103184 8.965245 -40.217837 5.728770 19.771518 43.889915 -12.613295 4.441854 -2.039849 -7.801104 -9.668040 -3.119511 -1.755623 -2.300755 0.000000 0.000000 0.000000 4.677166 -49.803311 9.058288 -19.843950 -6.915164 -24.653819 49.599635 5.702109 -4.369679 -18.187136 -25.506650 51.673062 5.261182 14.605104 -39.494015 0.000000 0.000000 0.000000 3.405234 -41.729293 5.526605 4.153978 10.987511 5.296287 2.109011 1.774026 -2.894508 0.187356 -1.097833 0.062248 0.000000 0.000000 0.000000 2.624661 3.227113 -1.117102 8.299775 7.986115 4.702801 -39.491317 -77.105418 -50.781425 0.000000 0.000000 0.000000 -0.101642 0.567344 -4.047777 4.330801 -12.371089 9.282449 2.289820 5.047794 -9.941693 -46.779091 25.788783 -47.754876 177.613865 -51.214104 175.376090 0.000000 0.000000 0.000000 1.887743 1.906782 -0.018868 5.132477 8.405199 -7.098850 -18.880786 -3.042905 9.162917 -33.551651 37.591380 73.154085 -124.521384 58.594888 123.964136 0.000000 0.000000 0.000000 
3.816729 86.532951 -7.419987 0.000000 0.000000 0.000000 5.816226 -48.874167 10.593395 -38.056981 8.298805 18.272411 40.373347 -12.724641 4.286138 -1.498796 -6.763830 -9.588667 -4.095374 -1.884729 -1.563632 0.000000 0.000000 0.000000 4.915843 -51.171890 10.523643 -19.055301 -5.211952 -25.021082 49.932593 4.905909 -4.371470 -19.175029 -25.398777 49.405046 5.642396 14.480174 -38.788798 0.000000 0.000000 0.000000 2.164977 -42.986923 6.644207 3.798485 10.771447 5.668412 2.650476 1.918529 -2.984331 0.177929 -0.807139 0.105717 0.000000 0.000000 0.000000 2.910404 3.345969 -1.209008 6.089512 6.963376 6.109432 -43.662797 -76.378263 -52.268781 0.000000 0.000000 0.000000 0.441338 0.734979 -4.183683 4.306223 -12.033308 8.681970 0.595991 3.965096 -10.770051 -40.891014 23.638284 -54.289407 174.944914 -56.520881 172.844111 0.000000 0.000000 0.000000 2.415277 2.103869 -0.323955 5.163092 9.689124 -5.136221 -17.766473 -2.994067 5.969325 -33.930126 37.480762 70.162271 -121.295991 61.228322 120.517759 0.000000 0.000000 0.000000 
4.140768 87.293625 -7.303226 0.000000 0.000000 0.000000 6.055735 -51.948161 13.036314 -34.492903 12.141593 16.072909 36.372055 -12.341397 4.241691 -1.676349 -4.636669 -9.714517 -3.671433 -1.948273 -1.834509 0.000000 0.000000 0.000000 5.772516 -53.312789 12.872652 -19.117645 -2.013571 -25.481817 49.778354 4.003552 -4.363433 -19.385728 -24.306777 46.744486 4.903657 14.692237 -37.520377 0.000000 0.000000 0.000000 1.096642 -44.469719 8.243952 3.980879 10.168359 6.038975 3.487679 1.913041 -2.973265 0.297329 -0.633224 0.100907 0.000000 0.000000 0.000000 3.402976 3.354495 -1.138801 2.097771 5.841962 7.355680 -49.402212 -75.380884 -54.327977 0.000000 0.000000 0.000000 1.029028 0.854733 -4.162338 4.126179 -11.121586 8.013017 -1.322741 3.869668 -9.982304 -32.812205 20.249549 -60.537230 170.801612 -62.608560 169.226010 0.000000 0.000000 0.000000 3.211960 2.135873 -0.609501 5.303206 11.022445 -3.111575 -16.150102 -2.201799 4.120376 -35.615065 38.100923 68.402371 -115.586308 65.479835 113.959193 0.000000 0.000000 0.000000 
4.637972 88.017708 -7.413204 0.000000 0.000000 0.000000 7.145985 -56.149100 16.078521 -30.437580 16.516367 13.737834 32.860078 -11.495930 4.280490 -2.344986 -1.498869 -10.373949 -1.508176 -1.958517 -3.197214 0.000000 0.000000 0.000000 7.687188 -56.897177 16.050009 -20.969388 2.552399 -25.811118 49.182451 3.393604 -4.257853 -17.677590 -21.542734 45.070321 3.238887 15.047892 -36.207912 0.000000 0.000000 0.000000 0.720401 -46.574473 10.145642 4.893628 9.023078 6.437875 4.676071 1.601817 -2.618418 0.280671 -0.589416 0.068395 0.000000 0.000000 0.000000 4.179651 3.155925 -0.744246 -2.982015 4.778447 8.015000 -55.057465 -74.131786 -55.859278 0.000000 0.000000 0.000000 1.915612 0.811031 -3.770007 3.873458 -9.602187 7.709436 -2.514486 4.784022 -8.044620 -23.106327 16.116962 -65.208048 165.573881 -68.196468 164.868541 0.000000 0.000000 0.000000 4.320306 1.907710 -0.574393 5.510593 12.462771 -1.368017 -14.731335 -1.620354 3.810023 -39.691377 41.013821 69.223592 -107.106382 70.142532 103.989917 0.000000 0.000000 0.000000 
5.199869 88.729347 -7.737156 0.000000 0.000000 0.000000 9.241691 -61.114279 19.448438 -26.143249 20.500838 11.738078 30.100569 -10.636925 4.369046 -3.039477 2.204101 -11.825638 -0.128402 -2.013354 -4.505465 0.000000 0.000000 0.000000 10.633152 -61.623271 19.815046 -25.050825 7.995815 -25.329798 48.372844 3.166132 -3.974777 -14.441381 -17.026557 44.240880 2.129114 15.046780 -35.260756 0.000000 0.000000 0.000000 1.479456 -49.500983 12.111383 6.717644 7.267644 6.855243 6.205723 1.000893 -1.858900 0.167538 -0.629475 0.105360 0.000000 0.000000 0.000000 5.354124 2.777445 0.008895 -8.099149 4.032939 7.638668 -58.606063 -72.551437 -55.449617 0.000000 0.000000 0.000000 3.473370 0.556171 -2.926692 3.597445 -7.398761 8.075159 -3.132559 6.151762 -5.436862 -12.473654 11.358708 -67.859268 159.574584 -72.720614 159.886642 0.000000 0.000000 0.000000 5.883208 1.475195 -0.070112 5.784810 13.920479 -0.122534 -12.748585 -0.920989 5.155928 -47.626004 46.319983 74.530512 -96.497316 73.871556 91.446766 0.000000 0.000000 0.000000 
5.712960 89.430870 -8.523846 0.000000 0.000000 0.000000 12.522441 -66.031100 23.090505 -21.950555 23.686888 10.343300 28.105743 -9.698847 4.352639 -4.017405 6.304206 -13.504994 -0.570610 -2.153598 -5.196587 0.000000 0.000000 0.000000 14.841409 -66.309553 24.059251 -30.880334 13.314364 -23.488776 47.437153 3.001820 -3.409836 -10.987707 -11.389659 42.881891 2.982451 14.336781 -34.921425 0.000000 0.000000 0.000000 3.737325 -53.571936 14.256067 9.361547 5.063956 7.309129 8.139351 0.298106 -0.773680 -0.003562 -0.534521 0.172499 0.000000 0.000000 0.000000 6.917354 2.341730 1.040006 -12.317062 3.794822 6.473626 -59.404259 -70.692554 -52.778825 0.000000 0.000000 0.000000 5.858674 0.176958 -1.740759 3.295535 -4.750812 8.942505 -3.634998 6.725965 -3.292732 -1.691818 5.660310 -69.033863 151.870021 -76.073841 153.038147 0.000000 0.000000 0.000000 7.947929 0.994014 0.781851 6.120537 15.248167 0.796474 -10.243784 0.466356 7.181976 -60.384890 52.405982 85.453187 -86.752972 76.024274 79.686178 0.000000 0.000000 0.000000 
6.132085 89.989952 -9.561710 0.000000 0.000000 0.000000 16.577542 -70.252027 26.769437 -17.743460 25.919613 9.517694 26.674607 -8.499946 4.120121 -5.934854 10.612029 -14.603721 -1.723083 -2.444616 -5.517532 0.000000 0.000000 0.000000 20.242661 -70.372682 28.856463 -37.639171 17.696132 -20.046755 46.114873 2.571636 -2.544334 -8.390411 -5.330207 40.282198 6.027486 12.974189 -35.015334 0.000000 0.000000 0.000000 7.543006 -58.249452 16.843211 12.638457 2.596071 7.634036 10.429099 -0.282920 0.386045 -0.142470 -0.381147 0.152599 0.000000 0.000000 0.000000 8.950228 1.996012 2.099185 -14.882881 3.874453 4.932523 -57.354540 -68.750137 -47.913132 0.000000 0.000000 0.000000 8.917104 -0.177589 -0.470524 2.914116 -2.117920 10.206336 -4.092826 6.851841 -1.895647 8.030764 -1.473740 -69.639017 139.578577 -78.267493 141.138810 0.000000 0.000000 0.000000 10.515212 0.684436 1.765668 6.512262 16.400418 1.597407 -7.391920 1.327648 7.876752 -76.985972 55.893969 100.615851 -82.934623 76.619525 74.070731 0.000000 0.000000 0.000000 
6.535595 90.332893 -10.699043 0.000000 0.000000 0.000000 21.013263 -73.491217 30.283539 -13.562530 27.263356 9.078786 25.660319 -7.463167 3.694579 -8.818470 14.796326 -15.312413 -2.141867 -2.906024 -5.802826 0.000000 0.000000 0.000000 26.280201 -73.687004 33.975857 -44.420887 20.593608 -15.586246 44.304548 1.924847 -1.545871 -6.511596 0.667573 36.778728 9.701047 11.501745 -35.062083 0.000000 0.000000 0.000000 12.604446 -63.005169 20.322260 16.269519 0.028001 7.555851 12.851747 -0.567257 1.336790 -0.176268 -0.147277 0.130983 0.000000 0.000000 0.000000 11.242625 1.845816 2.899473 -15.524373 3.941087 3.657538 -52.873437 -66.827076 -41.224819 0.000000 0.000000 0.000000 12.225666 -0.413923 0.568225 2.439248 0.177089 11.702262 -3.975511 6.408247 -1.126596 15.139748 -9.428264 -70.078772 119.202019 -79.190497 120.411905 0.000000 0.000000 0.000000 13.392923 0.637426 2.577337 6.949659 17.164590 2.369936 -4.584571 1.109138 7.296550 -90.604508 55.699093 112.674195 -85.915706 76.048433 75.662978 0.000000 0.000000 0.000000 
6.956494 90.522812 -11.614338 0.000000 0.000000 0.000000 26.425251 -75.878279 34.520271 -9.937159 28.036002 8.867303 24.995260 -6.876573 3.086704 -12.161083 18.550398 -16.112041 -1.198014 -3.501283 -6.168839 0.000000 0.000000 0.000000 33.529166 -76.344200 40.248826 -50.271603 22.059271 -11.005922 42.212386 1.102849 -0.613400 -4.446561 6.086329 33.320289 11.829518 10.522250 -34.723606 0.000000 0.000000 0.000000 18.704155 -67.196268 25.070435 19.697931 -2.450008 6.851391 15.143339 -0.532331 1.897921 -0.159312 0.124129 0.070933 0.000000 0.000000 0.000000 13.444524 1.892335 3.219304 -14.426956 3.540954 3.239860 -47.112142 -64.818304 -33.567713 0.000000 0.000000 0.000000 15.351738 -0.472183 1.194485 1.938358 1.815162 13.251896 -3.791606 5.596059 -1.210156 19.230784 -16.572884 -70.728262 94.130525 -78.102592 94.363974 0.000000 0.000000 0.000000 16.122481 0.840819 3.039607 7.264597 17.279578 3.205024 -2.098137 0.023879 6.669114 -95.985372 53.893655 116.129076 -92.222806 74.689246 81.026459 0.000000 0.000000 0.000000 
7.322157 90.590027 -12.161251 0.000000 0.000000 0.000000 32.279201 -77.649258 39.427243 -7.164630 28.661243 8.837549 24.561079 -7.033473 2.315326 -14.953751 21.416886 -17.451499 -0.237399 -4.088869 -6.106705 0.000000 0.000000 0.000000 41.527509 -78.196063 47.544684 -54.662742 22.607591 -6.965250 40.404551 0.347799 0.011177 -2.068835 10.407914 30.523098 11.709812 10.147213 -33.668424 0.000000 0.000000 0.000000 25.039335 -70.546244 30.548533 22.545621 -4.716938 5.484029 16.985825 -0.248359 2.007087 -0.091212 0.438260 0.071354 0.000000 0.000000 0.000000 15.273951 2.075226 3.006822 -12.115453 2.651698 3.813260 -40.855890 -62.584231 -25.443860 0.000000 0.000000 0.000000 17.893670 -0.418012 1.403651 1.449302 2.754502 14.692201 -3.695492 4.008366 -1.729060 20.555116 -20.880303 -71.560008 72.693232 -74.922394 71.524525 0.000000 0.000000 0.000000 18.433533 1.161328 3.159806 7.373346 16.629035 3.990608 0.564041 -0.929489 6.696273 -92.526230 51.781218 110.236091 -99.134240 73.128793 87.449630 0.000000 0.000000 0.000000 
